<svg width="166" height="30" viewBox="0 0 166 30" fill="none" xmlns="http://www.w3.org/2000/svg">
<path d="M92.9493 24.6326V29.8972H91.9295V22.7278H92.6433L96.9287 27.9913V22.7278H97.9485V29.8972H97.2347L92.9493 24.6326Z" fill="white"/>
<path d="M105.356 25.5447V26.5178H103.009V28.9253H106.173V29.8972H101.989V22.7278H106.07V23.7009H103.009V25.5447H105.356Z" fill="white"/>
<path d="M112.773 29.0269C114.232 29.0269 115.324 27.8698 115.324 26.3124C115.324 24.7664 114.232 23.599 112.773 23.599C111.315 23.599 110.223 24.7664 110.223 26.3124C110.223 27.8698 111.315 29.0269 112.773 29.0269ZM112.773 22.6259C114.793 22.6259 116.344 24.2235 116.344 26.3124C116.344 28.4023 114.793 30 112.773 30C110.753 30 109.203 28.4023 109.203 26.3124C109.203 24.2235 110.753 22.6259 112.773 22.6259Z" fill="white"/>
<path d="M123.622 28.3614H122.908L120.816 25.074V29.8981H119.796V22.7287H120.51L123.264 27.1019L126.02 22.7287H126.734V29.8981H125.714V25.074L123.622 28.3614Z" fill="white"/>
<path d="M84.6239 25.6116L84.145 26.7308H85.104L84.6239 25.6116ZM83.5147 28.2169H82.7551L84.3707 24.4338H84.8829L86.4973 28.2169H85.7388L85.3836 27.3795H83.8699L83.5147 28.2169Z" fill="white"/>
<path d="M133.201 28.2175L131.677 24.4332H132.425L133.454 27.0166L134.488 24.4332H135.237L133.713 28.2175H133.201Z" fill="white"/>
<path d="M139.803 25.0816H138.268V25.8661H139.426V26.5148H138.268V27.5696H139.856V28.2171H137.541V24.4329H139.803V25.0816Z" fill="white"/>
<path d="M142.13 28.2175V24.4332H142.641L144.741 26.8993V24.4332H145.469V28.2175H144.957L142.856 25.7525V28.2175H142.13Z" fill="white"/>
<path d="M147.66 24.4333H150.38V25.0821H149.383V28.2176H148.656V25.0821H147.66V24.4333Z" fill="white"/>
<path d="M154.138 28.2713C153.675 28.2713 153.298 28.1413 153.007 27.8825C152.684 27.5904 152.522 27.1705 152.522 26.623V24.433H153.249V26.6771C153.249 26.9911 153.332 27.2246 153.497 27.3787C153.666 27.5421 153.879 27.6226 154.138 27.6226C154.397 27.6226 154.61 27.5421 154.778 27.3787C154.943 27.2246 155.027 26.9911 155.027 26.6771V24.433H155.753V26.623C155.753 27.1705 155.592 27.5904 155.269 27.8825C154.978 28.1413 154.601 28.2713 154.138 28.2713Z" fill="white"/>
<path d="M158.726 25.8925H159.329C159.504 25.8925 159.628 25.8557 159.694 25.7798C159.768 25.7004 159.803 25.6038 159.803 25.4934C159.803 25.3772 159.768 25.2806 159.694 25.2012C159.623 25.1219 159.502 25.0816 159.329 25.0816H158.726V25.8925ZM158.99 26.5424H158.726V28.2171H158V24.4329H159.373C159.717 24.4329 159.991 24.5272 160.196 24.7147C160.419 24.9275 160.53 25.1851 160.53 25.4876C160.53 25.7902 160.419 26.0478 160.196 26.2606C160.089 26.3618 159.963 26.4354 159.819 26.4814L161.231 28.2171H160.332L158.99 26.5424Z" fill="white"/>
<path d="M165.194 25.0816H163.66V25.8661H164.817V26.5148H163.66V27.5696H165.248V28.2171H162.932V24.4329H165.194V25.0816Z" fill="white"/>
<path d="M0.875 2.27068V0.216363H11.215V2.27068H7.12208V15.3534H4.96791V2.27068H0.875Z" fill="white"/>
<path d="M17.4181 6.16294H22.3727V8.21726H17.4181V13.299H24.096V15.3533H15.2639V0.216245H23.8806V2.27056H17.4181V6.16294Z" fill="white"/>
<path d="M26.4225 7.78477C26.4225 5.59358 27.1512 3.74861 28.6087 2.2487C30.0662 0.749951 31.8789 0 34.048 0C35.1239 0 36.1483 0.205892 37.1165 0.616525C38.0859 1.02716 38.9017 1.59997 39.5617 2.33612L38.1191 3.76241C37.6597 3.25861 37.0638 2.84797 36.3305 2.53051C35.5983 2.21305 34.8375 2.05431 34.048 2.05431C32.4965 2.05431 31.1972 2.60297 30.1487 3.698C29.1003 4.79417 28.5767 6.15604 28.5767 7.78477C28.5767 9.47101 29.1152 10.8478 30.1923 11.9153C31.2694 12.9815 32.6191 13.5152 34.2416 13.5152C35.9501 13.5152 37.3938 12.8009 38.5718 11.3746L40.1003 12.7584C39.4403 13.6095 38.5855 14.2905 37.5371 14.8012C36.4886 15.313 35.3898 15.5695 34.2416 15.5695C31.9866 15.5695 30.1201 14.8311 28.6408 13.353C27.1615 11.875 26.4225 10.0197 26.4225 7.78477Z" fill="white"/>
<path d="M53.951 15.3529V8.21691H45.5498V15.3529H43.3956V0.217049H45.5498V6.1626H53.951V0.217049H56.1052V15.3529H53.951Z" fill="white"/>
<path d="M69.7832 3.07066C69.7832 2.5082 69.5999 2.05156 69.2332 1.69729C68.8677 1.34416 68.4116 1.16818 67.8662 1.16818C67.3197 1.16818 66.8648 1.34416 66.4981 1.69729C66.1314 2.05156 65.9492 2.5082 65.9492 3.07066C65.9492 3.54686 66.0925 4.00465 66.3801 4.44404C66.6665 4.88343 66.9828 5.26875 67.3277 5.60117L67.5649 5.83812C67.8364 5.65178 68.1057 5.46084 68.3727 5.26531C68.6374 5.07092 68.8746 4.85812 69.0831 4.62808C69.2905 4.39688 69.4601 4.15533 69.5896 3.90343C69.719 3.65153 69.7832 3.37317 69.7832 3.07066ZM64.7851 11.0061C64.7851 11.4685 64.8894 11.901 65.0979 12.3036C65.3053 12.7073 65.5929 13.0685 65.9596 13.3848C66.3262 13.7023 66.7639 13.9507 67.2738 14.1313C67.7837 14.3119 68.3395 14.4016 68.9433 14.4016C69.8611 14.4016 70.6449 14.236 71.2911 13.9035C71.9374 13.5723 72.4679 13.1398 72.885 12.6072L67.4136 7.33112C66.5806 7.86368 65.9343 8.41924 65.4749 8.99551C65.0154 9.57177 64.7851 10.2424 64.7851 11.0061ZM77.4729 15.3528H75.7713L73.7684 13.4285C73.2218 14.0772 72.5515 14.596 71.754 14.9848C70.9565 15.3747 70.0204 15.5691 68.9433 15.5691C68.2111 15.5691 67.5179 15.4529 66.8648 15.2229C66.2105 14.9928 65.6399 14.6754 65.1517 14.2716C64.6636 13.8679 64.2752 13.3882 63.9887 12.8338C63.7011 12.2794 63.5579 11.6698 63.5579 11.0061C63.5579 10.4736 63.6404 9.98355 63.8054 9.53611C63.9704 9.08982 64.1858 8.68264 64.4516 8.31457C64.7175 7.9465 65.0291 7.61178 65.3889 7.30927C65.7476 7.00676 66.1211 6.733 66.5084 6.48685C65.9767 5.9681 65.5471 5.42404 65.2159 4.85467C64.8859 4.28531 64.7209 3.69064 64.7209 3.07066C64.7209 2.66693 64.792 2.27815 64.9363 1.90318C65.0796 1.5282 65.2881 1.20039 65.5608 0.91973C65.8335 0.637923 66.1635 0.414778 66.552 0.249144C66.9392 0.0835109 67.3781 0.000694662 67.8662 0.000694662C68.3543 0.000694662 68.7921 0.0835109 69.1805 0.249144C69.5678 0.414778 69.8978 0.637923 70.1705 0.91973C70.4432 1.20039 70.6517 1.5282 70.795 1.90318C70.9382 2.27815 71.0104 2.66693 71.0104 3.07066C71.0104 3.48935 70.9382 3.87122 70.795 4.21629C70.6517 4.56251 70.4581 4.88343 70.214 5.17904C69.9688 5.47465 69.6938 5.74495 69.3845 5.98995C69.0751 6.23495 68.7565 6.4581 68.4254 6.66054L73.5312 11.5686C73.9036 10.7473 74.0915 9.89614 74.0915 9.01736C74.0915 8.46985 74.0514 7.96835 73.9724 7.51401C73.8933 7.06082 73.8257 6.71115 73.7684 6.46615L74.9738 6.18434C75.0609 6.53056 75.14 6.95614 75.211 7.45995C75.2832 7.9649 75.3187 8.48365 75.3187 9.01736C75.3187 9.62238 75.2431 10.2171 75.093 10.8014C74.9417 11.3845 74.7229 11.9366 74.4353 12.4554L77.4729 15.3528Z" fill="white"/>
<path d="M93.542 7.78477C93.542 6.04102 92.9313 4.62738 91.711 3.54617C90.7348 2.69614 89.299 2.27056 87.4027 2.27056H85.1408V13.299H87.4027C89.299 13.299 90.7348 12.8734 91.711 12.0234C92.9313 10.9422 93.542 9.52967 93.542 7.78477ZM87.5104 15.3533H82.9866V0.216245H87.5104C89.6645 0.216245 91.3879 0.69244 92.6804 1.64368C93.6131 2.34992 94.3499 3.2402 94.8884 4.31452C95.4269 5.38884 95.6962 6.54482 95.6962 7.78477C95.6962 9.02472 95.4304 10.1853 94.8987 11.2665C94.3682 12.3477 93.6349 13.2334 92.7021 13.9259C91.4097 14.8771 89.6783 15.3533 87.5104 15.3533Z" fill="white"/>
<path d="M99.7456 0.216014H101.9V15.3519H99.7456V0.216014Z" fill="white"/>
<path d="M119.628 6.16295V12.7584C118.968 13.5946 118.109 14.2721 117.053 14.7908C115.998 15.3096 114.903 15.5695 113.769 15.5695C111.514 15.5695 109.647 14.8311 108.168 13.353C106.689 11.875 105.95 10.0197 105.95 7.78477C105.95 5.59358 106.677 3.74861 108.136 2.24871C109.594 0.749954 111.406 3.29084e-06 113.574 3.29084e-06C114.651 3.29084e-06 115.674 0.205895 116.644 0.616528C117.613 1.02716 118.429 1.59998 119.089 2.33612L117.646 3.76241C117.186 3.25861 116.59 2.84683 115.858 2.53051C115.126 2.21305 114.365 2.05432 113.574 2.05432C112.024 2.05432 110.724 2.60298 109.676 3.698C108.628 4.79302 108.104 6.15604 108.104 7.78477C108.104 9.47101 108.643 10.8478 109.72 11.9153C110.797 12.9815 112.145 13.5152 113.769 13.5152C115.306 13.5152 116.54 13.0471 117.473 12.1096V8.21726H113.165V6.16295H119.628Z" fill="white"/>
<path d="M124.323 0.216014H126.477V15.3519H124.323V0.216014Z" fill="white"/>
<path d="M130.096 2.27068V0.216363H140.436V2.27068H136.343V15.3534H134.189V2.27068H130.096Z" fill="white"/>
<path d="M147.501 3.78449L145.175 9.40683H149.827L147.501 3.78449ZM152.261 15.3535L150.667 11.4611H144.313L142.74 15.3535H140.5L146.747 0.216475H148.255L154.502 15.3535H152.261Z" fill="white"/>
<path d="M159.197 0.216475V13.2992H165.875V15.3524H157.043V0.216475H159.197Z" fill="white"/>
</svg>
