<?xml version="1.0" encoding="UTF-8"?>
<svg data-bbox="75.164 108.9 223.106 155.381" xmlns="http://www.w3.org/2000/svg" viewBox="0 0 373 373" height="373" width="373" data-type="ugc">
    <g>
        <g filter="url(#143e759c-6d48-4fdc-82e1-4968b2666466)">
            <path fill="#686867" d="M187.93 264.281c-42.877 0-77.69-34.747-77.69-77.69 0-42.877 34.747-77.691 77.69-77.691 42.877 0 77.69 34.748 77.69 77.625-.065 42.878-34.813 77.691-77.69 77.756Z"/>
            <path fill="#686867" d="M187.93 115.194c-39.403 0-71.397 31.929-71.397 71.397s31.929 71.396 71.397 71.396c39.402 0 71.397-31.928 71.397-71.396a71.41 71.41 0 0 0-20.915-50.483 71.36 71.36 0 0 0-50.482-20.914Z"/>
            <path fill="#1D1D1B" d="M187.93 115.194c-39.403 0-71.397 31.929-71.397 71.397s31.929 71.396 71.397 71.396c39.402 0 71.397-31.928 71.397-71.396a71.41 71.41 0 0 0-20.915-50.483 71.36 71.36 0 0 0-50.482-20.914Z"/>
            <path fill="#686867" d="M187.93 249.727c-34.879 0-63.201-28.323-63.201-63.202 0-34.878 28.322-63.201 63.201-63.201 34.879 0 63.201 28.323 63.201 63.201-.065 34.879-28.322 63.202-63.201 63.202Zm0-123.256c-33.174 0-60.054 26.88-60.054 60.054 0 33.174 26.88 60.055 60.054 60.055 33.174 0 60.054-26.881 60.054-60.055 0-15.931-6.294-31.207-17.57-42.484-11.342-11.211-26.618-17.57-42.484-17.57Z"/>
            <path fill="#686867" d="M189.569 249.727c-9.834 0-19.013-6.688-25.831-18.882-6.688-11.867-10.359-27.601-10.359-44.32 0-16.718 3.671-32.453 10.359-44.319 6.818-12.129 15.997-18.882 25.831-18.882s19.013 6.687 25.831 18.882c6.688 11.866 10.359 27.601 10.359 44.319 0 16.719-3.671 32.453-10.359 44.32-6.818 12.194-15.997 18.882-25.831 18.882Zm0-123.256c-18.226 0-33.043 26.946-33.043 60.054 0 33.109 14.817 60.055 33.043 60.055s33.043-26.946 33.043-60.055c0-15.931-3.606-31.535-9.965-42.811-6.098-10.949-14.555-17.243-23.078-17.243Z"/>
            <path fill="#686867" d="M186.75 222.715c-16.718 0-32.453-3.671-44.32-10.358-12.129-6.819-18.881-15.997-18.881-25.832 0-9.834 6.687-19.013 18.881-25.831 11.867-6.687 27.602-10.359 44.32-10.359s32.453 3.672 44.32 10.359c12.128 6.818 18.816 15.997 18.816 25.831 0 9.835-6.688 19.013-18.816 25.832-11.867 6.687-27.602 10.358-44.32 10.358Zm0-69.233c-33.109 0-60.055 14.817-60.055 33.043s26.946 33.043 60.055 33.043c15.931 0 31.535-3.606 42.812-9.965 10.948-6.163 17.242-14.555 17.242-23.143 0-18.161-26.946-32.978-60.054-32.978Z"/>
            <path fill="#1D1D1B" d="M75.164 167.447H298.27v38.157H75.164v-38.157Z" clip-rule="evenodd" fill-rule="evenodd"/>
            <path fill="#ffffff" d="M80.802 196.95v-22.422H86.9v22.422h-6.098Zm20.718 0-4.59-16.129h-.13c.196 2.754.327 4.852.327 6.425v9.769h-5.376v-22.422h8.064l4.655 15.932h.131l4.59-15.932h8.064v22.422h-5.573v-11.539c0-.655.065-2.163.197-4.589h-.132l-4.523 16.128-5.704-.065Zm30.355 0-4.589-16.129h-.066c.197 2.754.328 4.852.328 6.425v9.769h-5.376v-22.422h8.064l4.655 15.932h.131l4.589-15.932h8.064v22.422h-5.573v-11.539c0-.655.066-2.163.197-4.589h-.131l-4.524 16.128-5.769-.065Zm33.895 0h-13.309v-22.422h13.309v4.851h-7.212v3.54h6.753v4.852h-6.753v4.261h7.212v4.918Zm10.031-8.196v8.13h-6.097v-22.422h7.343c6.097 0 9.113 2.229 9.113 6.622 0 2.622-1.246 4.655-3.803 6.031l6.556 9.769h-6.884l-4.786-8.13h-1.442Zm0-4.589h1.115c2.098 0 3.212-.918 3.212-2.819 0-1.574-1.049-2.295-3.147-2.295h-1.18v5.114Zm29.831 5.901c0 1.311-.328 2.622-1.049 3.737-.722 1.114-1.836 1.966-3.082 2.491-1.508.656-3.081.918-4.655.918-1.245 0-2.491-.066-3.737-.328-1.114-.262-2.163-.59-3.147-1.115v-5.376a18.61 18.61 0 0 0 3.606 1.377c1.115.328 2.295.459 3.409.525.722.065 1.377-.131 1.967-.459a1.49 1.49 0 0 0 .656-1.246c0-.262-.066-.59-.262-.787-.197-.262-.525-.524-.787-.721-.393-.262-1.377-.721-3.016-1.442-1.18-.525-2.295-1.115-3.278-1.901-.721-.59-1.246-1.312-1.639-2.164-.393-.918-.524-1.901-.524-2.885-.066-1.901.786-3.671 2.229-4.851 1.508-1.18 3.54-1.77 6.162-1.77 2.426 0 4.852.59 7.081 1.573l-1.836 4.655c-1.704-.852-3.54-1.377-5.441-1.442a2.635 2.635 0 0 0-1.705.393c-.328.262-.524.59-.524 1.049 0 .459.262.918.655 1.18a24.98 24.98 0 0 0 3.737 1.901 9.677 9.677 0 0 1 4 2.82c.852 1.245 1.245 2.556 1.18 3.868Zm3.54 6.884v-22.422h6.097v22.422h-6.097Zm31.863-11.277c0 3.803-.918 6.622-2.754 8.589-1.835 1.966-4.589 2.95-8.129 2.95-3.475 0-6.163-.984-8.13-2.95-1.901-1.967-2.819-4.852-2.819-8.655 0-3.737.918-6.556 2.819-8.523 1.836-1.966 4.589-2.95 8.13-2.95 3.606 0 6.294.984 8.129 2.95 1.836 1.967 2.754 4.852 2.754 8.589Zm-15.407 0c0 4.327 1.508 6.491 4.524 6.491 1.311.065 2.622-.525 3.409-1.574.721-1.049 1.114-2.688 1.114-4.917 0-2.229-.393-3.868-1.114-4.983-.787-1.049-2.033-1.704-3.344-1.573-3.081 0-4.589 2.163-4.589 6.556Zm40.845 11.277h-7.999l-8.129-15.866h-.132c.197 2.491.328 4.392.328 5.704v10.096H245.1v-22.422h7.933l8.195 15.604h.065c-.131-2.295-.196-4.065-.196-5.442v-10.162h5.376v22.488Z"/>
            <path fill="#3C90FF" d="M292.632 196.95h-7.933l-8.195-15.801h-.131c.196 2.492.327 4.393.327 5.704v10.097h-5.376v-22.422h7.868l8.195 15.603h.065c-.131-2.294-.196-4.065-.196-5.441v-10.162h5.376v22.422Z"/>
        </g>
        <defs fill="none">
            <filter color-interpolation-filters="sRGB" filterUnits="userSpaceOnUse" height="286.504" width="354.229" y="43.339" x="9.602" id="143e759c-6d48-4fdc-82e1-4968b2666466">
                <feFlood result="BackgroundImageFix" flood-opacity="0"/>
                <feColorMatrix result="hardAlpha" values="0 0 0 0 0 0 0 0 0 0 0 0 0 0 0 0 0 0 127 0" in="SourceAlpha"/>
                <feOffset/>
                <feGaussianBlur stdDeviation="32.781"/>
                <feComposite operator="out" in2="hardAlpha"/>
                <feColorMatrix values="0 0 0 0 0.235294 0 0 0 0 0.564706 0 0 0 0 1 0 0 0 1 0"/>
                <feBlend result="effect1_dropShadow_217_227" in2="BackgroundImageFix"/>
                <feBlend result="shape" in2="effect1_dropShadow_217_227" in="SourceGraphic"/>
            </filter>
        </defs>
    </g>
</svg>